# xmcd
#
# Track frame offsets: 
#        150
#        2330
#        15310
#        33408
#        50214
#        97086
#        148864
#        170709
#
# Disc length: 2511 seconds
#
# Revision: 0
# Processed by: cddbd v1.5.2PL0 Copyright (c) Steve Scherf et al.
# Submitted via: ExactAudioCopy v0.95b3
#
DISCID=6509cd08
DTITLE=Jimi Hendrix  - Bologna '68 (Motoclassica Merge)  FLAC
DYEAR=1900
DGENRE=
TTITLE0=Intro
TTITLE1=Fire
TTITLE2=Hey Joe
TTITLE3=Stone free
TTITLE4=Red House
TTITLE5=Tax free
TTITLE6=Purple haze
TTITLE7=Foxy lady
EXTD=
EXTT0=
EXTT1=
EXTT2=
EXTT3=
EXTT4=
EXTT5=
EXTT6=
EXTT7=
PLAYORDER=
